<?xml version="1.0" encoding="utf-8"?>
<!-- Generator: Adobe Illustrator 25.4.1, SVG Export Plug-In . SVG Version: 6.00 Build 0)  -->
<svg version="1.1" id="Layer_1" xmlns="http://www.w3.org/2000/svg" xmlns:xlink="http://www.w3.org/1999/xlink" x="0px" y="0px"
	 viewBox="0 0 105 33.6" style="enable-background:new 0 0 105 33.6;" xml:space="preserve">
<style type="text/css">
	.st0{fill:#C7358C;}
	.st1{fill:#324556;}
</style>
<path class="st0" d="M2.2,23.7c2.1,2.5,5.2,4,8.4,4c3.3,0,6.4-1.5,8.4-4H2.2z M21.2,19.5c1.6-5.8-1.8-11.8-7.7-13.4S1.7,8,0.1,13.8
	c-0.5,1.9-0.5,3.9,0,5.7h4.2c-0.4-0.9-0.6-1.8-0.6-2.7c0-3.8,3.1-6.9,6.9-6.9c3.8,0,6.9,3.1,6.9,6.9c0,0.9-0.2,1.9-0.6,2.7H21.2z"/>
<path class="st1" d="M35.5,22.3c-0.1-0.1-0.1-0.2-0.1-0.2v-9.7c0-0.1,0-0.2,0.1-0.2c0.1-0.1,0.1-0.1,0.2-0.1h3.5
	c0.9-0.1,1.8,0.2,2.5,0.8c0.6,0.6,1,1.4,0.9,2.2c0,0.7-0.2,1.4-0.6,1.9c-0.4,0.5-1,0.8-1.7,1l2.4,4.1c0,0.1,0,0.1,0,0.2
	c0,0.1,0,0.2-0.1,0.2c-0.1,0.1-0.1,0.1-0.2,0.1h-0.2c-0.1,0-0.2,0-0.3-0.1c-0.1-0.1-0.2-0.2-0.2-0.3l-2.4-4h-3v4.1
	c0,0.1,0,0.2-0.1,0.2c-0.1,0.1-0.2,0.1-0.2,0.1h-0.3C35.7,22.4,35.6,22.4,35.5,22.3z M39.2,17.1c0.7,0.1,1.4-0.1,1.9-0.5
	c0.4-0.4,0.7-1,0.6-1.6c0-0.6-0.2-1.2-0.6-1.6c-0.6-0.4-1.2-0.6-1.9-0.5h-2.8v4.2H39.2z"/>
<path class="st1" d="M45.3,21.6c-0.6-0.7-0.9-1.6-0.9-2.5v-0.6v-0.6c0-0.9,0.4-1.8,1-2.5c0.6-0.6,1.4-1,2.2-0.9
	c0.9-0.1,1.8,0.3,2.4,1c0.6,0.8,0.9,1.8,0.9,2.8v0.2c0,0.1,0,0.2-0.1,0.2c-0.1,0.1-0.2,0.1-0.2,0.1h-5.3v0.2c0,0.5,0.1,0.9,0.3,1.3
	c0.2,0.4,0.5,0.7,0.8,1c0.4,0.2,0.8,0.4,1.2,0.4c0.5,0,0.9-0.1,1.3-0.3c0.3-0.2,0.5-0.4,0.7-0.6c0.1-0.1,0.1-0.2,0.2-0.2
	c0.1,0,0.2,0,0.2,0h0.2c0.1,0,0.2,0,0.2,0.1c0.1,0,0.1,0.1,0.1,0.2c0,0.3-0.2,0.6-0.4,0.8c-0.3,0.3-0.7,0.6-1.1,0.7
	c-0.5,0.2-1,0.3-1.6,0.3C46.7,22.6,45.8,22.3,45.3,21.6z M49.9,18.1L49.9,18.1c0-0.8-0.2-1.4-0.6-1.9c-0.4-0.5-1.1-0.8-1.7-0.7
	c-0.7,0-1.3,0.2-1.7,0.7c-0.4,0.5-0.7,1.2-0.6,1.9v0.1H49.9z"/>
<path class="st1" d="M53.3,21.7c-0.6-0.7-0.9-1.6-0.9-2.5v-1.2c0-0.9,0.3-1.8,0.9-2.5c0.6-0.6,1.5-0.9,2.4-0.9
	c0.6,0,1.2,0.1,1.7,0.3c0.4,0.2,0.8,0.5,1,0.9c0.2,0.3,0.4,0.7,0.4,1.1c0,0.1,0,0.2-0.1,0.2c-0.1,0.1-0.2,0.1-0.2,0.1h-0.2
	c-0.1,0-0.2,0-0.2-0.1c-0.1-0.1-0.1-0.2-0.1-0.2c-0.1-0.5-0.4-0.9-0.8-1.2c-0.4-0.2-0.9-0.4-1.4-0.3c-0.6,0-1.2,0.2-1.7,0.6
	c-0.5,0.5-0.7,1.3-0.7,2v1c0,0.7,0.2,1.4,0.7,2c0.4,0.4,1.1,0.7,1.7,0.6c0.5,0,0.9-0.1,1.4-0.3c0.4-0.3,0.7-0.7,0.8-1.2
	c0-0.1,0.1-0.2,0.1-0.2c0.1-0.1,0.1-0.1,0.2-0.1h0.2c0.1,0,0.2,0,0.2,0.1c0.1,0.1,0.1,0.1,0.1,0.2c0,0.4-0.2,0.8-0.4,1.1
	c-0.3,0.4-0.6,0.7-1,0.9c-0.5,0.2-1.1,0.4-1.7,0.3C54.8,22.6,53.9,22.3,53.3,21.7z"/>
<path class="st1" d="M60.8,22.3c-0.1-0.1-0.1-0.2-0.1-0.2v-9.9c0-0.2,0.1-0.3,0.3-0.3c0,0,0,0,0,0h0.2c0.2,0,0.3,0.1,0.3,0.3
	c0,0,0,0,0,0v3.5c0.3-0.4,0.6-0.7,1-0.9c0.5-0.2,1-0.3,1.5-0.3c0.8,0,1.7,0.3,2.2,0.9c0.5,0.7,0.8,1.5,0.8,2.4v4.2
	c0,0.1,0,0.2-0.1,0.2c-0.1,0.1-0.1,0.1-0.2,0.1h-0.2c-0.2,0-0.3-0.1-0.3-0.3c0,0,0,0,0,0v-4.1c0-0.7-0.2-1.3-0.6-1.9
	c-0.4-0.5-1.1-0.7-1.7-0.7c-0.6,0-1.3,0.2-1.7,0.7c-0.4,0.5-0.7,1.2-0.6,1.9v4.1c0,0.1,0,0.2-0.1,0.2c-0.1,0.1-0.2,0.1-0.2,0.1h-0.3
	C61,22.4,60.9,22.4,60.8,22.3z"/>
<path class="st1" d="M69.6,22.3c-0.1-0.1-0.1-0.2-0.1-0.2V15c0-0.2,0.1-0.3,0.3-0.3c0,0,0,0,0,0h0.3c0.1,0,0.2,0,0.2,0.1
	c0.1,0.1,0.1,0.1,0.1,0.2v0.7c0.3-0.4,0.6-0.7,1-0.9c0.5-0.2,1-0.3,1.5-0.3c0.8,0,1.7,0.3,2.2,0.9c0.5,0.7,0.8,1.5,0.8,2.4v4.2
	c0,0.1,0,0.2-0.1,0.2c-0.1,0.1-0.1,0.1-0.2,0.1h-0.2c-0.1,0-0.2,0-0.2-0.1c-0.1-0.1-0.1-0.2-0.1-0.2v-4.1c0-0.7-0.2-1.3-0.6-1.9
	c-0.4-0.5-1.1-0.7-1.7-0.7c-0.6,0-1.3,0.2-1.7,0.7c-0.5,0.5-0.7,1.2-0.6,1.9v4.1c0,0.1,0,0.2-0.1,0.2c-0.1,0.1-0.1,0.1-0.2,0.1h-0.3
	C69.8,22.4,69.7,22.4,69.6,22.3z"/>
<path class="st1" d="M78.9,21.6c-0.5-0.7-0.8-1.5-0.7-2.4V15c0-0.2,0.1-0.3,0.3-0.3c0,0,0,0,0,0h0.3c0.1,0,0.2,0,0.2,0.1
	c0.1,0.1,0.1,0.1,0.1,0.2v4.1c0,1.7,0.7,2.5,2.2,2.5c0.6,0,1.3-0.2,1.7-0.7c0.4-0.5,0.7-1.2,0.6-1.9V15c0-0.1,0-0.1,0.1-0.2
	c0.1-0.1,0.2-0.1,0.2-0.1h0.2c0.1,0,0.2,0,0.3,0.1c0.1,0.1,0.1,0.1,0.1,0.2v7.1c0,0.1,0,0.2-0.1,0.2c-0.1,0.1-0.1,0.1-0.2,0.1H84
	c-0.1,0-0.2,0-0.2-0.1c-0.1-0.1-0.1-0.2-0.1-0.2v-0.7c-0.3,0.4-0.6,0.7-1,0.9c-0.5,0.2-1,0.3-1.5,0.3C80.3,22.7,79.5,22.3,78.9,21.6
	z"/>
<path class="st1" d="M87,22.3c-0.1-0.1-0.1-0.2-0.1-0.2V15c0-0.1,0-0.2,0.1-0.2c0.1-0.1,0.1-0.1,0.2-0.1h0.3c0.1,0,0.2,0,0.2,0.1
	c0.1,0.1,0.1,0.1,0.1,0.2v0.7c0.3-0.4,0.6-0.7,1-0.9c0.5-0.2,1-0.3,1.5-0.3c0.8,0,1.7,0.3,2.2,0.9c0.6,0.7,0.9,1.5,0.8,2.4v4.2
	c0,0.1,0,0.2-0.1,0.2c-0.1,0.1-0.1,0.1-0.2,0.1h-0.3c-0.1,0-0.2,0-0.2-0.1c-0.1-0.1-0.1-0.2-0.1-0.2v-4.1c0-0.7-0.2-1.3-0.6-1.9
	c-0.4-0.5-1.1-0.7-1.7-0.7c-0.6,0-1.3,0.2-1.7,0.7c-0.5,0.5-0.7,1.2-0.7,1.9v4.1c0,0.1,0,0.2-0.1,0.2c-0.1,0.1-0.1,0.1-0.2,0.1h-0.3
	C87.2,22.4,87.1,22.4,87,22.3z"/>
<path class="st1" d="M96.8,25.3c-0.4-0.2-0.7-0.5-1-0.9c-0.2-0.3-0.3-0.6-0.3-0.9c0-0.1,0-0.2,0.1-0.2c0.1-0.1,0.1-0.1,0.2-0.1h0.2
	c0.1,0,0.2,0,0.2,0.1c0.1,0.1,0.1,0.2,0.1,0.2c0.3,0.9,1.2,1.5,2.1,1.4c0.7,0.1,1.3-0.1,1.9-0.5c0.5-0.5,0.7-1.2,0.6-1.9v-1
	c-0.6,0.8-1.5,1.2-2.5,1.2c-0.9,0.1-1.8-0.3-2.4-1.1c-0.5-0.7-0.8-1.6-0.8-2.5v-0.8c0-0.9,0.3-1.8,0.8-2.5c0.6-0.7,1.5-1.1,2.4-1
	c1-0.1,1.9,0.4,2.5,1.2V15c0-0.1,0-0.2,0.1-0.2c0.1-0.1,0.2-0.1,0.2-0.1h0.2c0.2,0,0.3,0.2,0.3,0.3v7.2c0,0.9-0.2,1.8-0.7,2.5
	c-0.7,0.7-1.6,1-2.6,0.9C98,25.7,97.3,25.5,96.8,25.3z M100.4,20.9c0.4-0.5,0.6-1.2,0.6-1.8c0-0.4,0-0.7,0-1.1
	c0-0.7-0.2-1.3-0.6-1.8c-0.9-1-2.4-1-3.4-0.2c-0.1,0-0.1,0.1-0.2,0.2c-0.4,0.6-0.7,1.3-0.7,2V19c0,0.7,0.2,1.4,0.6,2
	c0.9,1,2.4,1,3.4,0.2C100.3,21,100.3,21,100.4,20.9L100.4,20.9z"/>
<path class="st1" d="M25.6,20.8c-0.9-0.9-1.3-2.1-1.3-3.4v-0.9c0-1.2,0.5-2.4,1.3-3.3c0.9-0.8,2.1-1.3,3.3-1.2
	c1.3-0.1,2.5,0.4,3.4,1.3c0.8,1,1.3,2.3,1.2,3.6v0.4c0,0.1,0,0.2-0.1,0.3c-0.1,0.1-0.2,0.1-0.3,0.1h-6.2v0.1c0,0.6,0.2,1.2,0.6,1.7
	c0.3,0.5,0.9,0.7,1.5,0.7c0.7,0,1.4-0.3,1.8-0.9c0.1-0.1,0.2-0.2,0.3-0.3c0.1,0,0.2-0.1,0.3-0.1h1.6c0.1,0,0.2,0,0.3,0.1
	c0.1,0.1,0.1,0.1,0.1,0.2c0,0.4-0.2,0.8-0.5,1.1c-0.4,0.5-1,0.8-1.5,1.1c-0.7,0.3-1.5,0.5-2.3,0.4C27.6,22.1,26.4,21.6,25.6,20.8z
	 M30.9,16.1L30.9,16.1c0-0.7-0.2-1.3-0.5-1.8c-0.4-0.5-0.9-0.7-1.5-0.7c-0.6,0-1.1,0.2-1.5,0.7c-0.4,0.5-0.6,1.1-0.5,1.8v0.1H30.9z"
	/>
</svg>
