<?xml version="1.0" encoding="utf-8"?>
<!-- Generator: Adobe Illustrator 25.4.1, SVG Export Plug-In . SVG Version: 6.00 Build 0)  -->
<svg version="1.1" id="Layer_1" xmlns="http://www.w3.org/2000/svg" xmlns:xlink="http://www.w3.org/1999/xlink" x="0px" y="0px"
	 viewBox="0 0 268 85.8" style="enable-background:new 0 0 268 85.8;" xml:space="preserve">
<style type="text/css">
	.st0{fill:#C7358C;}
	.st1{fill:#FFFFFF;}
</style>
<path class="st0" d="M6.4,60.6C11.8,67.2,19.9,71,28.5,71c8.6,0,16.7-3.8,22.1-10.4H6.4z M56.2,49.7c0.6-2.3,1-4.7,1-7.1
	C57.2,26.8,44.4,14,28.6,14S0,26.8,0,42.6c0,2.4,0.4,4.8,1,7.1h11c-1-2.2-1.5-4.6-1.5-7.1C10.8,32.7,19,24.8,29,25.1
	c9.6,0.2,17.3,8,17.5,17.5c0,2.4-0.5,4.8-1.5,7.1L56.2,49.7z"/>
<path class="st1" d="M93.9,56.9c-0.2-0.2-0.2-0.4-0.2-0.6V31c0-0.2,0.1-0.5,0.2-0.6c0.2-0.2,0.4-0.3,0.6-0.3h9.1
	c2.4-0.1,4.7,0.6,6.6,2c1.7,1.5,2.5,3.6,2.4,5.8c0.3,3.6-2.2,6.9-5.8,7.5L113,56c0.1,0.1,0.1,0.3,0.1,0.4c0,0.2-0.1,0.4-0.2,0.5
	c-0.1,0.1-0.3,0.2-0.5,0.2h-0.5c-0.3,0-0.6-0.1-0.9-0.3c-0.3-0.2-0.5-0.5-0.6-0.8l-6.2-10.4h-8.1v10.6c0,0.2-0.1,0.5-0.3,0.6
	c-0.2,0.2-0.4,0.2-0.6,0.2h-0.7C94.3,57.2,94.1,57.1,93.9,56.9z M103.5,43.4c1.8,0.1,3.6-0.4,5-1.4c1.2-1,1.8-2.6,1.7-4.1
	c0.1-1.6-0.5-3.1-1.7-4.1c-1.5-1-3.3-1.5-5-1.4h-7.3v11H103.5z"/>
<path class="st1" d="M119.4,55.1c-1.6-1.8-2.5-4.1-2.6-6.5v-1.5v-1.5c0.1-2.4,1-4.7,2.5-6.5c1.5-1.6,3.7-2.5,6-2.4
	c2.4-0.2,4.8,0.8,6.4,2.6c1.6,2.1,2.4,4.7,2.3,7.3v0.6c0,0.2-0.1,0.5-0.3,0.6c-0.2,0.2-0.4,0.2-0.6,0.2h-13.9v0.4
	c0,1.2,0.3,2.3,0.8,3.4c0.5,1,1.2,1.9,2.2,2.5c0.9,0.6,2.1,1,3.2,0.9c1.2,0.1,2.4-0.2,3.5-0.8c0.8-0.4,1.4-1,1.9-1.7
	c0.1-0.2,0.3-0.4,0.5-0.6c0.2-0.1,0.4-0.1,0.6-0.1h0.6c0.2,0,0.4,0.1,0.6,0.2c0.2,0.1,0.2,0.3,0.2,0.5c-0.1,0.8-0.5,1.4-1,2
	c-0.8,0.8-1.8,1.5-2.9,2c-1.3,0.6-2.7,0.8-4.1,0.8C123.2,57.7,121,56.8,119.4,55.1z M131.6,45.9v-0.2c0.1-1.8-0.5-3.6-1.7-4.9
	c-1.1-1.3-2.8-2-4.5-1.9c-1.7-0.1-3.4,0.6-4.5,1.9c-1.1,1.4-1.7,3.1-1.7,4.9v0.2H131.6z"/>
<path class="st1" d="M140.5,55.2c-1.6-1.8-2.4-4.1-2.4-6.6v-1.5v-1.5c-0.1-2.4,0.8-4.7,2.4-6.6c1.7-1.6,3.9-2.5,6.3-2.4
	c1.5,0,3,0.3,4.4,0.9c1.1,0.5,2,1.3,2.7,2.3c0.6,0.9,0.9,1.9,1,2.9c0,0.2-0.1,0.4-0.2,0.6c-0.2,0.2-0.4,0.3-0.6,0.3h-0.5
	c-0.2,0-0.4,0-0.6-0.2c-0.2-0.2-0.3-0.4-0.4-0.6c-0.4-1.2-1.1-2.3-2.2-3c-1.1-0.6-2.3-1-3.6-0.9c-1.7-0.1-3.3,0.5-4.5,1.7
	c-1.2,1.4-1.9,3.3-1.8,5.2v1.3v1.4c-0.1,1.9,0.6,3.7,1.8,5.2c1.2,1.2,2.8,1.8,4.5,1.7c1.3,0.1,2.5-0.3,3.6-0.9c1-0.7,1.8-1.8,2.2-3
	c0.1-0.2,0.2-0.4,0.4-0.6c0.2-0.1,0.4-0.2,0.6-0.2h0.5c0.2,0,0.5,0.1,0.6,0.3c0.2,0.1,0.3,0.4,0.2,0.6c-0.1,1-0.4,2-1,2.9
	c-0.7,1-1.6,1.9-2.7,2.4c-1.4,0.6-2.9,1-4.4,0.9C144.5,57.7,142.2,56.9,140.5,55.2z"/>
<path class="st1" d="M160.3,56.9c-0.2-0.2-0.3-0.4-0.2-0.6V30.6c0-0.2,0.1-0.5,0.2-0.6c0.2-0.2,0.4-0.2,0.6-0.2h0.7
	c0.2,0,0.5,0.1,0.6,0.2c0.2,0.2,0.2,0.4,0.2,0.6v9.2c0.7-0.9,1.7-1.7,2.7-2.3c1.2-0.6,2.5-0.8,3.9-0.8c2.2-0.1,4.4,0.7,5.9,2.4
	c1.4,1.8,2.2,4,2.1,6.2v11c0,0.2-0.1,0.5-0.2,0.6c-0.2,0.2-0.4,0.2-0.6,0.2h-0.7c-0.4,0-0.8-0.3-0.8-0.7c0,0,0-0.1,0-0.1V45.5
	c0.1-1.8-0.4-3.5-1.5-4.9c-1.1-1.2-2.8-1.8-4.4-1.7c-1.7-0.1-3.3,0.6-4.5,1.8c-1.2,1.3-1.8,3.1-1.7,4.8v10.8c0,0.2-0.1,0.5-0.2,0.6
	c-0.2,0.2-0.4,0.2-0.6,0.2h-0.7C160.7,57.2,160.4,57.1,160.3,56.9z"/>
<path class="st1" d="M183.2,56.9c-0.2-0.2-0.2-0.4-0.2-0.6V37.9c0-0.5,0.3-0.8,0.8-0.9c0,0,0,0,0.1,0h0.7c0.2,0,0.5,0.1,0.6,0.2
	c0.2,0.2,0.2,0.4,0.2,0.6v1.8c0.7-0.9,1.6-1.7,2.7-2.3c1.2-0.6,2.5-0.8,3.9-0.8c2.2-0.1,4.4,0.7,5.9,2.4c1.4,1.8,2.2,4,2.1,6.2v11
	c0,0.2-0.1,0.5-0.2,0.6c-0.2,0.2-0.4,0.2-0.6,0.2h-0.7c-0.2,0-0.5-0.1-0.6-0.2c-0.2-0.2-0.2-0.4-0.2-0.6V45.5
	c0.1-1.8-0.4-3.5-1.5-4.9c-1.1-1.2-2.8-1.8-4.4-1.7c-1.7-0.1-3.3,0.6-4.5,1.8c-1.2,1.3-1.8,3.1-1.7,4.8v10.8c0,0.2-0.1,0.5-0.2,0.6
	c-0.2,0.2-0.4,0.2-0.6,0.2h-0.7C183.6,57.2,183.4,57.1,183.2,56.9z"/>
<path class="st1" d="M207.8,55.2c-1.4-1.8-2.1-4-2-6.3v-11c0-0.2,0.1-0.5,0.2-0.6c0.2-0.2,0.4-0.2,0.6-0.2h0.7
	c0.2,0,0.5,0.1,0.6,0.2c0.2,0.2,0.2,0.4,0.2,0.6v10.7c0,4.4,1.9,6.6,5.8,6.6c1.7,0.1,3.3-0.6,4.5-1.8c1.2-1.3,1.8-3.1,1.7-4.9V37.9
	c0-0.5,0.3-0.8,0.8-0.9c0,0,0,0,0.1,0h0.7c0.2,0,0.5,0.1,0.6,0.2c0.2,0.2,0.2,0.4,0.2,0.6v18.4c0,0.4-0.3,0.8-0.7,0.8
	c0,0-0.1,0-0.1,0h-0.7c-0.2,0-0.5-0.1-0.6-0.2c-0.2-0.2-0.2-0.4-0.2-0.6v-1.8c-0.7,0.9-1.6,1.7-2.7,2.3c-1.2,0.6-2.5,0.8-3.8,0.8
	C211.3,57.7,209.2,56.8,207.8,55.2z"/>
<path class="st1" d="M229,56.9c-0.2-0.2-0.2-0.4-0.2-0.6V37.9c0-0.2,0.1-0.5,0.2-0.6c0.2-0.2,0.4-0.2,0.6-0.2h0.7
	c0.2,0,0.5,0.1,0.6,0.2c0.2,0.2,0.2,0.4,0.2,0.6v1.8c0.7-0.9,1.6-1.7,2.7-2.3c1.2-0.6,2.5-0.8,3.9-0.8c2.2-0.1,4.4,0.7,5.9,2.4
	c1.4,1.8,2.2,4,2.1,6.2v11c0,0.2-0.1,0.5-0.2,0.6c-0.2,0.2-0.4,0.2-0.6,0.2h-0.7c-0.4,0-0.8-0.3-0.9-0.7c0,0,0-0.1,0-0.1V45.5
	c0.1-1.8-0.4-3.5-1.5-4.9c-1.1-1.2-2.8-1.8-4.4-1.7c-1.7-0.1-3.3,0.6-4.5,1.8c-1.2,1.3-1.8,3.1-1.7,4.8v10.8c0,0.2-0.1,0.5-0.2,0.6
	c-0.2,0.2-0.4,0.2-0.6,0.2h-0.7C229.4,57.2,229.1,57.1,229,56.9z"/>
<path class="st1" d="M254.4,64.6c-1.1-0.5-1.9-1.4-2.5-2.4c-0.4-0.7-0.7-1.5-0.7-2.4c0-0.2,0.1-0.4,0.3-0.6c0.2-0.2,0.4-0.2,0.6-0.2
	h0.5c0.2,0,0.4,0.1,0.6,0.2c0.2,0.2,0.3,0.4,0.4,0.6c0.8,2.4,2.7,3.5,5.6,3.5c1.7,0.1,3.5-0.3,4.9-1.3c1.1-0.9,1.6-2.5,1.6-4.9v-2.6
	c-1.5,2-4,3.2-6.5,3c-2.4,0.2-4.7-0.8-6.2-2.7c-1.4-1.9-2.1-4.3-2.1-6.6v-1.1v-1.1c0-2.4,0.7-4.7,2.1-6.6c1.5-1.9,3.8-3,6.2-2.8
	c2.6-0.1,5,1,6.5,3V38c0-0.2,0.1-0.5,0.2-0.6c0.2-0.2,0.4-0.3,0.6-0.3h0.6c0.5,0,0.9,0.3,0.9,0.8c0,0,0,0,0,0.1v18.8
	c0.1,2.3-0.6,4.6-1.9,6.5c-1.3,1.6-3.6,2.4-6.8,2.4C257.6,65.8,255.9,65.4,254.4,64.6z M264,53.3c1-1.4,1.6-3,1.7-4.8
	c0-0.3,0-0.7,0-1.4c0-0.7,0-1.1,0-1.4c-0.1-1.7-0.6-3.4-1.7-4.8c-1.1-1.4-2.9-2.1-4.6-2c-1.8-0.1-3.5,0.6-4.6,2
	c-1,1.5-1.6,3.3-1.6,5.1v1.1v1.1c0,1.8,0.5,3.6,1.6,5.1c1.1,1.4,2.8,2.1,4.6,2C261.1,55.5,262.9,54.7,264,53.3z"/>
<path class="st1" d="M67.7,53c-2.3-2.4-3.5-5.6-3.4-8.9v-1.2v-1.2c0-3.2,1.2-6.4,3.5-8.7c2.3-2.2,5.4-3.3,8.6-3.2
	c3.3-0.2,6.6,1.1,8.9,3.5c2.2,2.6,3.3,6,3.2,9.4v1c0,0.3-0.1,0.6-0.3,0.8c-0.2,0.2-0.6,0.3-0.9,0.3H71v0.4c0,1.6,0.5,3.2,1.5,4.5
	c0.9,1.2,2.3,1.9,3.8,1.8c1.8,0.1,3.6-0.8,4.7-2.2c0.2-0.3,0.4-0.5,0.7-0.7c0.3-0.1,0.5-0.2,0.8-0.2h4.2c0.3,0,0.5,0.1,0.8,0.3
	c0.2,0.2,0.3,0.4,0.3,0.7c-0.1,1.1-0.6,2-1.4,2.8c-1.1,1.2-2.5,2.1-4,2.8c-1.9,0.8-4,1.2-6,1.2C73.2,56.3,70.1,55.2,67.7,53z
	 M81.8,40.8v-0.1c0.1-1.7-0.4-3.3-1.5-4.6c-1-1.2-2.5-1.8-4-1.7c-1.5-0.1-3,0.6-4,1.8c-1,1.3-1.5,2.9-1.4,4.6v0.1H81.8z"/>
</svg>
